<?xml version="1.0" standalone="no"?>
<!DOCTYPE svg PUBLIC "-//W3C//DTD SVG 20010904//EN"
 "http://www.w3.org/TR/2001/REC-SVG-20010904/DTD/svg10.dtd">
<svg version="1.0" xmlns="http://www.w3.org/2000/svg"
 width="160.000000pt" height="160.000000pt" viewBox="0 0 160.000000 160.000000"
 preserveAspectRatio="xMidYMid meet">
<metadata>
Created by potrace 1.14, written by Peter Selinger 2001-2017
</metadata>
<g transform="translate(0.000000,160.000000) scale(0.100000,-0.100000)"
fill="#000000" stroke="none">
<path d="M646 1584 c-210 -41 -398 -168 -516 -350 -240 -368 -135 -862 236
-1104 368 -240 862 -135 1104 236 240 368 135 862 -236 1104 -171 112 -388
154 -588 114z m24 -494 l0 -90 -30 0 c-30 0 -30 1 -30 55 l0 55 -50 0 -50 0 0
-310 0 -310 50 0 50 0 0 155 0 155 148 190 147 189 133 1 c104 0 132 -3 126
-12 -4 -7 -70 -93 -146 -190 -90 -115 -137 -182 -132 -190 5 -7 66 -91 136
-186 70 -95 128 -174 128 -177 0 -3 -56 -5 -124 -5 l-123 0 -92 119 c-50 66
-91 122 -91 125 0 3 17 6 38 6 36 0 41 -5 105 -90 l67 -90 51 0 c40 0 49 3 42
12 -159 203 -223 288 -223 295 0 4 56 76 124 158 l123 150 -55 3 c-66 4 -53
15 -206 -182 l-116 -150 0 -178 0 -179 -112 3 -113 3 -3 365 c-1 201 0 371 3
377 3 9 35 13 115 13 l110 0 0 -90z"/>
</g>
</svg>
